<svg xmlns="http://www.w3.org/2000/svg" version="1.1" xmlns:xlink="http://www.w3.org/1999/xlink"
     xmlns:svgjs="http://svgjs.com/svgjs" width="1440" height="560" preserveAspectRatio="none" viewBox="0 0 1440 560">
    <g mask="url(&quot;#SvgjsMask1020&quot;)" fill="none">
        <rect width="1440" height="560" x="0" y="0" fill="rgba(0, 0, 0, 1)"></rect>
        <path d="M399 282L398 456" stroke-width="6" stroke="url(#SvgjsLinearGradient1021)" stroke-linecap="round"
              class="Down"></path>
        <path d="M409 10L408 373" stroke-width="8" stroke="url(#SvgjsLinearGradient1021)" stroke-linecap="round"
              class="Down"></path>
        <path d="M1311 149L1310 404" stroke-width="6" stroke="url(#SvgjsLinearGradient1021)" stroke-linecap="round"
              class="Down"></path>
        <path d="M453 326L452 484" stroke-width="6" stroke="url(#SvgjsLinearGradient1021)" stroke-linecap="round"
              class="Down"></path>
        <path d="M263 87L262 454" stroke-width="10" stroke="url(#SvgjsLinearGradient1021)" stroke-linecap="round"
              class="Down"></path>
        <path d="M1030 293L1029 687" stroke-width="10" stroke="url(#SvgjsLinearGradient1022)" stroke-linecap="round"
              class="Up"></path>
        <path d="M903 278L902 -17" stroke-width="8" stroke="url(#SvgjsLinearGradient1021)" stroke-linecap="round"
              class="Down"></path>
        <path d="M836 298L835 129" stroke-width="10" stroke="url(#SvgjsLinearGradient1021)" stroke-linecap="round"
              class="Down"></path>
        <path d="M333 26L332 -132" stroke-width="6" stroke="url(#SvgjsLinearGradient1022)" stroke-linecap="round"
              class="Up"></path>
        <path d="M1178 348L1177 45" stroke-width="8" stroke="url(#SvgjsLinearGradient1021)" stroke-linecap="round"
              class="Down"></path>
        <path d="M35 430L34 633" stroke-width="6" stroke="url(#SvgjsLinearGradient1022)" stroke-linecap="round"
              class="Up"></path>
        <path d="M1422 430L1421 158" stroke-width="8" stroke="url(#SvgjsLinearGradient1021)" stroke-linecap="round"
              class="Down"></path>
        <path d="M444 176L443 500" stroke-width="10" stroke="url(#SvgjsLinearGradient1022)" stroke-linecap="round"
              class="Up"></path>
        <path d="M744 11L743 -278" stroke-width="8" stroke="url(#SvgjsLinearGradient1022)" stroke-linecap="round"
              class="Up"></path>
        <path d="M572 13L571 -251" stroke-width="8" stroke="url(#SvgjsLinearGradient1022)" stroke-linecap="round"
              class="Up"></path>
        <path d="M779 450L778 606" stroke-width="8" stroke="url(#SvgjsLinearGradient1021)" stroke-linecap="round"
              class="Down"></path>
        <path d="M820 508L819 839" stroke-width="6" stroke="url(#SvgjsLinearGradient1022)" stroke-linecap="round"
              class="Up"></path>
        <path d="M996 454L995 200" stroke-width="6" stroke="url(#SvgjsLinearGradient1021)" stroke-linecap="round"
              class="Down"></path>
        <path d="M71 273L70 15" stroke-width="8" stroke="url(#SvgjsLinearGradient1022)" stroke-linecap="round"
              class="Up"></path>
        <path d="M1433 395L1432 632" stroke-width="8" stroke="url(#SvgjsLinearGradient1022)" stroke-linecap="round"
              class="Up"></path>
        <path d="M389 360L388 648" stroke-width="8" stroke="url(#SvgjsLinearGradient1021)" stroke-linecap="round"
              class="Down"></path>
        <path d="M754 63L753 -124" stroke-width="10" stroke="url(#SvgjsLinearGradient1021)" stroke-linecap="round"
              class="Down"></path>
        <path d="M1240 96L1239 310" stroke-width="8" stroke="url(#SvgjsLinearGradient1021)" stroke-linecap="round"
              class="Down"></path>
        <path d="M274 241L273 540" stroke-width="6" stroke="url(#SvgjsLinearGradient1022)" stroke-linecap="round"
              class="Up"></path>
        <path d="M999 470L998 80" stroke-width="10" stroke="url(#SvgjsLinearGradient1021)" stroke-linecap="round"
              class="Down"></path>
        <path d="M246 432L245 622" stroke-width="8" stroke="url(#SvgjsLinearGradient1022)" stroke-linecap="round"
              class="Up"></path>
        <path d="M333 308L332 107" stroke-width="8" stroke="url(#SvgjsLinearGradient1022)" stroke-linecap="round"
              class="Up"></path>
        <path d="M131 152L130 492" stroke-width="6" stroke="url(#SvgjsLinearGradient1021)" stroke-linecap="round"
              class="Down"></path>
        <path d="M1413 10L1412 271" stroke-width="6" stroke="url(#SvgjsLinearGradient1021)" stroke-linecap="round"
              class="Down"></path>
        <path d="M1181 512L1180 109" stroke-width="8" stroke="url(#SvgjsLinearGradient1021)" stroke-linecap="round"
              class="Down"></path>
        <path d="M1356 218L1355 68" stroke-width="6" stroke="url(#SvgjsLinearGradient1022)" stroke-linecap="round"
              class="Up"></path>
        <path d="M792 319L791 535" stroke-width="8" stroke="url(#SvgjsLinearGradient1021)" stroke-linecap="round"
              class="Down"></path>
        <path d="M176 11L175 174" stroke-width="8" stroke="url(#SvgjsLinearGradient1021)" stroke-linecap="round"
              class="Down"></path>
        <path d="M372 137L371 -48" stroke-width="10" stroke="url(#SvgjsLinearGradient1022)" stroke-linecap="round"
              class="Up"></path>
        <path d="M882 1L881 -219" stroke-width="10" stroke="url(#SvgjsLinearGradient1022)" stroke-linecap="round"
              class="Up"></path>
        <path d="M131 560L130 410" stroke-width="8" stroke="url(#SvgjsLinearGradient1022)" stroke-linecap="round"
              class="Up"></path>
    </g>
    <defs>
        <mask id="SvgjsMask1020">
            <rect width="1440" height="560" fill="#ffffff"></rect>
        </mask>
        <linearGradient x1="0%" y1="0%" x2="0%" y2="100%" id="SvgjsLinearGradient1021">
            <stop stop-color="rgba(69, 201, 44, 0)" offset="0"></stop>
            <stop stop-color="rgba(69, 201, 44, 1)" offset="1"></stop>
        </linearGradient>
        <linearGradient x1="0%" y1="100%" x2="0%" y2="0%" id="SvgjsLinearGradient1022">
            <stop stop-color="rgba(69, 201, 44, 0)" offset="0"></stop>
            <stop stop-color="rgba(69, 201, 44, 1)" offset="1"></stop>
        </linearGradient>
    </defs>
</svg>
